PathFileType	4	(X/Y/Z)	RBDS08\RBDS08runT25.trc
DataRate	CameraRate	NumFrames	NumMarkers	Units	OrigDataRate	OrigDataStartFrame	OrigNumFrames
150.000000	150.000000	4	33	mm	150.000000	3937	4500
Frame#	Time	L.ASIS			L.Heel.Bottom			L.Heel.Lateral			L.Heel.Top			L.Iliac.Crest			L.MT1			L.MT5			L.PSIS			L.Shank.Bottom.Lateral			L.Shank.Bottom.Medial			L.Shank.Top.Lateral			L.Shank.Top.Medial			L.Thigh.Bottom.Lateral			L.Thigh.Bottom.Medial			L.Thigh.Top.Lateral			L.Thigh.Top.Medial			R.ASIS			R.ASY			R.Heel.Bottom			R.Heel.Lateral			R.Heel.Top			R.Iliac.Crest			R.MT1			R.MT5			R.PSIS			R.Shank.Bottom.Lateral			R.Shank.Bottom.Medial			R.Shank.Top.Lateral			R.Shank.Top.Medial			R.Thigh.Bottom.Lateral			R.Thigh.Bottom.Medial			R.Thigh.Top.Lateral			R.Thigh.Top.Medial			
		X1	Y1	Z1	X2	Y2	Z2	X3	Y3	Z3	X4	Y4	Z4	X5	Y5	Z5	X6	Y6	Z6	X7	Y7	Z7	X8	Y8	Z8	X9	Y9	Z9	X10	Y10	Z10	X11	Y11	Z11	X12	Y12	Z12	X13	Y13	Z13	X14	Y14	Z14	X15	Y15	Z15	X16	Y16	Z16	X17	Y17	Z17	X18	Y18	Z18	X19	Y19	Z19	X20	Y20	Z20	X21	Y21	Z21	X22	Y22	Z22	X23	Y23	Z23	X24	Y24	Z24	X25	Y25	Z25	X26	Y26	Z26	X27	Y27	Z27	X28	Y28	Z28	X29	Y29	Z29	X30	Y30	Z30	X31	Y31	Z31	X32	Y32	Z32	X33	Y33	Z33	

3938	26.24666666666667	2130.974478574301	994.9208921859631	917.0044074245391	2090.937125605025	31.01223362754423	985.7550201348567	2126.441238991932	49.69242860960238	945.8805352471741	2105.477025410024	80.23680192356169	993.9723281746817	2069.963255033751	1063.756668899502	884.0273806023283	2312.693791596198	53.37395465924081	1047.814799568495	2285.94741336572	41.23573669313205	938.4002371037626	1959.137659183987	1021.746229047764	977.9253721071229	2172.435206226004	151.8144483976198	941.7206612653146	2131.355718972964	157.4803117856559	972.1478067542554	2170.736246884844	229.5651714694226	920.1309478421957	2131.257139228701	239.8459196595106	954.6153885102831	2163.893547002112	628.5211702455081	863.6899945490823	2106.342537933264	601.1235913630702	899.2634240630728	2107.956773644228	723.7465620906157	850.6582847670801	2056.632191890124	699.1719243961998	889.5720597410937	2128.42144115323	975.9726861718987	1145.297579766128	1625.619708418261	214.5688892876067	1079.684273646766	1522.645511520562	378.588013305823	1060.235100813025	1538.629411216586	354.9036928699167	1104.104609329711	1572.553082446168	377.5216887010804	1064.881136045061	2080.276608802156	1048.864750414661	1171.353205506302	1588.809270667661	163.0237701744056	1029.819095871721	1560.412800923924	193.1781217667595	1131.941720199812	1961.494079228612	1018.108003311956	1080.981600747337	1671.655987355188	366.7897322065827	1122.591236952836	1664.955443388657	392.3684148693063	1074.485019940264	1741.674580497315	407.9955370936452	1131.803186733812	1735.961190121827	429.9403140972462	1083.466655955	2014.918744984864	562.9765839802146	1167.759599000444	1957.971710190289	570.2368250212832	1122.226354833891	2011.627657121428	671.8431091269319	1187.106161096091	1956.778131045887	678.1631912433326	1145.888350071813	
3939	26.25333333333333	2128.828645099046	990.3623725831325	916.5171362207127	2074.010049203001	31.96607992284079	986.3699404642114	2109.703277866029	50.58771366601177	946.664220923506	2089.45938978511	80.97860699714384	995.2624850385652	2068.190826269205	1057.625896716662	884.2755033197946	2296.706229848557	50.82457818886795	1048.47235897066	2269.533507660576	40.37134811941075	938.8998254766963	1957.046308307136	1016.246509256348	979.8050453116306	2160.353169887593	150.9099147220953	943.0434947990706	2119.16919203751	158.2572162719379	973.000087519192	2161.649984235413	228.6461514932356	921.1205284460566	2122.304699843676	240.4964804877258	955.3004174558281	2162.398987328663	625.3135262602207	863.6702988020247	2105.600244541262	597.8690281469002	900.2208819777759	2105.799388288916	720.0984487620384	850.5945006203833	2055.144258747853	695.5709694343924	890.452345908846	2128.347100009074	969.8296207003784	1144.886833975524	1631.117055776706	221.2061818134021	1081.691575232705	1530.937434883496	387.0158172160723	1063.120794892983	1546.988939215468	363.2385313087232	1106.978229510153	1580.919346462931	385.1333512714496	1067.233260274176	2079.967070738322	1041.655067759097	1172.2541809263	1592.633275787521	170.2091679366686	1032.364385286299	1566.059826905599	201.2377434925103	1134.895099959946	1960.300914588714	1011.694280743469	1082.077183414739	1680.862948698974	371.4823375777003	1123.989421221378	1674.634000596262	397.1845822168096	1075.938000235499	1752.241996514456	410.4030834001942	1132.636342327846	1746.892469327671	432.4010561784251	1084.25904740378	2023.233907465798	556.2028340098514	1167.461218072917	1966.348193671946	561.9430488747815	1121.812144930498	2017.314114558991	664.9216035366355	1186.740296583977	1962.404800092462	669.8054208137954	1145.358963906827	
3940	26.26	2126.442112389595	986.1186092607799	915.9496467893896	2057.008523385328	32.74904411497731	986.8419187477076	2092.816759083255	51.40154581191954	947.2814970125182	2073.051040053125	81.59514799430265	996.2709256626345	2065.889452337758	1051.567363087539	884.5439764862318	2280.262921558648	49.37110611823701	1049.010220235205	2252.851845685487	40.16518070809308	939.3535149104215	1954.780775240422	1011.054642750827	981.7911181051946	2147.785398382483	150.4514544414883	944.0783825698809	2106.538503941931	159.4538859873344	973.5509101440705	2152.066510863713	228.0902741073869	921.8556109205542	2112.888401801088	241.4877349944123	955.7147532376662	2160.417095900288	622.2140743820324	863.626606419488	2104.481235793362	594.834005274934	901.367997769263	2103.286508164692	716.6191376883222	850.5663286681186	2053.329461114237	692.2391742608162	891.4619110048184	2128.009447348287	963.7881113850055	1144.48248025626	1637.882686640471	227.4324712472272	1083.774017078934	1540.325113270354	394.9066453244972	1066.01651274709	1556.44194082594	371.0881953751174	1109.904156356128	1590.378226732216	392.312203023655	1069.669603852346	2079.443076575926	1034.542611472777	1173.167790850228	1597.859969296897	176.9740299298519	1035.007341971723	1573.044464021815	208.7573016296394	1137.886501293409	1958.902662046134	1005.64129108956	1083.186591377901	1691.035007301286	375.8530791181331	1125.427740211271	1685.222986449823	401.6649882828497	1077.447665102176	1763.59224108228	412.6484696580458	1133.507883526702	1758.537539673413	434.6636249712339	1085.082502792906	2031.586603119507	550.0000751145602	1167.089037126932	1974.830174960197	554.1793309253342	1121.271479275955	2022.922044604965	658.5130778310005	1186.273656866409	1968.01843065668	661.9045529119071	1144.67229796618	
3941	26.26666666666667	2123.884759912442	982.2890380796599	915.3128650021175	2040.063025907515	33.35534532810033	987.1781417339259	2075.929060502406	52.09392298853079	947.7314241783007	2056.433043040593	82.08072759362813	996.9994768051456	2063.040531652672	1045.726943663779	884.8418592931646	2263.560174756616	48.7983865309382	1049.402320512469	2236.053061674856	40.41613883843466	939.7340385305588	1952.411299045704	1006.28082453127	983.8194492131129	2134.836442922985	150.2879098069824	944.8078040344375	2093.571655571167	160.8768123601026	973.7932910770514	2142.015705525766	227.7401096963747	922.3198747781018	2103.032073862263	242.6258675503323	955.8397905987448	2157.838377741165	619.1891948264901	863.5733079181057	2102.807636161024	592.0072330517693	902.636856556869	2100.3906997932	713.32645460345	850.5859134831779	2051.117379049022	689.2159688222957	892.5636890435504	2127.391710352384	957.9981294732124	1144.115151094242	1645.883082285009	233.1915175695257	1085.88789033581	1550.65677830404	402.1426139049205	1068.896083575454	1566.86936891773	378.3566395530517	1112.842980559316	1600.781438633794	398.9596372140858	1072.136968621878	2078.656004371921	1027.746199124752	1174.076935261616	1604.479045028647	183.2124923014995	1037.73487781382	1581.372202722994	215.6496443116376	1140.892645897263	1957.333832355408	1000.092819903932	1084.296771352823	1702.073586349713	379.8664544041861	1126.886839527004	1696.619943927582	405.7930431078677	1078.997044806156	1775.638338608596	414.72240624442	1134.414849206104	1770.813430372491	436.7378460875669	1085.943679616498	2040.017465104995	544.4514851679111	1166.63896137095	1983.447591089818	547.0363272078754	1120.602610370086	2028.478810191439	652.6888546649301	1185.712775118957	1973.644358956707	654.5402534390302	1143.852305138505	
